<mxfile host="app.diagrams.net" agent="Mozilla/5.0 (Windows NT 10.0; Win64; x64) AppleWebKit/537.36 (KHTML, like Gecko) Chrome/141.0.0.0 Safari/537.36 Edg/141.0.0.0" version="28.2.5">
  <diagram name="第 1 页" id="SxSbMB0uR9IlXzEwxC12">
    <mxGraphModel dx="1506" dy="828" grid="1" gridSize="10" guides="1" tooltips="1" connect="1" arrows="1" fold="1" page="1" pageScale="1" pageWidth="827" pageHeight="1169" math="0" shadow="0">
      <root>
        <mxCell id="0" />
        <mxCell id="1" parent="0" />
        <mxCell id="as75IXR2-DBPwpFutZNr-1" style="edgeStyle=orthogonalEdgeStyle;rounded=0;orthogonalLoop=1;jettySize=auto;html=1;entryX=0;entryY=0.5;entryDx=0;entryDy=0;" edge="1" parent="1" source="as75IXR2-DBPwpFutZNr-2" target="as75IXR2-DBPwpFutZNr-5">
          <mxGeometry relative="1" as="geometry">
            <mxPoint x="1379.06" y="1250" as="targetPoint" />
          </mxGeometry>
        </mxCell>
        <mxCell id="as75IXR2-DBPwpFutZNr-2" value="破冰" style="ellipse;whiteSpace=wrap;html=1;" vertex="1" parent="1">
          <mxGeometry x="1180" y="940" width="140" height="80" as="geometry" />
        </mxCell>
        <mxCell id="as75IXR2-DBPwpFutZNr-3" value="" style="edgeStyle=orthogonalEdgeStyle;rounded=0;orthogonalLoop=1;jettySize=auto;html=1;" edge="1" parent="1" source="as75IXR2-DBPwpFutZNr-5" target="as75IXR2-DBPwpFutZNr-7">
          <mxGeometry relative="1" as="geometry" />
        </mxCell>
        <mxCell id="as75IXR2-DBPwpFutZNr-4" value="这一层我要做什么呢" style="edgeLabel;html=1;align=center;verticalAlign=middle;resizable=0;points=[];" vertex="1" connectable="0" parent="as75IXR2-DBPwpFutZNr-3">
          <mxGeometry x="0.0222" y="-2" relative="1" as="geometry">
            <mxPoint as="offset" />
          </mxGeometry>
        </mxCell>
        <mxCell id="as75IXR2-DBPwpFutZNr-5" value="基础信息破冰层" style="ellipse;whiteSpace=wrap;html=1;" vertex="1" parent="1">
          <mxGeometry x="1446.56" y="950" width="80" height="80" as="geometry" />
        </mxCell>
        <mxCell id="as75IXR2-DBPwpFutZNr-7" value="了解基本信息" style="whiteSpace=wrap;html=1;" vertex="1" parent="1">
          <mxGeometry x="1800" y="940" width="120" height="60" as="geometry" />
        </mxCell>
        <mxCell id="as75IXR2-DBPwpFutZNr-9" style="edgeStyle=orthogonalEdgeStyle;rounded=0;orthogonalLoop=1;jettySize=auto;html=1;entryX=1;entryY=0.5;entryDx=0;entryDy=0;" edge="1" parent="1" source="as75IXR2-DBPwpFutZNr-10" target="as75IXR2-DBPwpFutZNr-15">
          <mxGeometry relative="1" as="geometry" />
        </mxCell>
        <mxCell id="as75IXR2-DBPwpFutZNr-10" value="&lt;ul style=&quot;margin: 16px 0px; padding-left: 18px; color: rgb(15, 17, 21); font-family: quote-cjk-patch, Inter, system-ui, -apple-system, BlinkMacSystemFont, &amp;quot;Segoe UI&amp;quot;, Roboto, Oxygen, Ubuntu, Cantarell, &amp;quot;Open Sans&amp;quot;, &amp;quot;Helvetica Neue&amp;quot;, sans-serif; font-size: 16px; text-align: start; background-color: rgb(255, 255, 255);&quot;&gt;&lt;li&gt;&lt;p style=&quot;margin-top: 0px !important; margin-right: 0px; margin-bottom: 0px; margin-left: 0px;&quot; class=&quot;ds-markdown-paragraph&quot;&gt;&lt;span style=&quot;font-weight: 600;&quot;&gt;基本信息：&lt;/span&gt; 怎么称呼？来自哪里？（口音、家乡话题）&lt;/p&gt;&lt;/li&gt;&lt;li style=&quot;margin-top: 6px;&quot;&gt;&lt;p style=&quot;margin-top: 0px !important; margin-right: 0px; margin-bottom: 0px; margin-left: 0px;&quot; class=&quot;ds-markdown-paragraph&quot;&gt;&lt;span style=&quot;font-weight: 600;&quot;&gt;当前状态：&lt;/span&gt; 最近在忙什么？今天过得怎么样？&lt;/p&gt;&lt;/li&gt;&lt;li style=&quot;margin-top: 6px;&quot;&gt;&lt;p style=&quot;margin-top: 0px !important; margin-right: 0px; margin-bottom: 0px; margin-left: 0px;&quot; class=&quot;ds-markdown-paragraph&quot;&gt;&lt;span style=&quot;font-weight: 600;&quot;&gt;场景关联：&lt;/span&gt;&amp;nbsp;如果是特定场合认识的，可以聊“你是怎么认识活动主人的？”、“你觉得这个讲座/电影怎么样？”&lt;/p&gt;&lt;/li&gt;&lt;/ul&gt;" style="ellipse;whiteSpace=wrap;html=1;" vertex="1" parent="1">
          <mxGeometry x="1890" y="860" width="790" height="317.5" as="geometry" />
        </mxCell>
        <mxCell id="as75IXR2-DBPwpFutZNr-11" value="" style="edgeStyle=orthogonalEdgeStyle;rounded=0;orthogonalLoop=1;jettySize=auto;html=1;" edge="1" parent="1" source="as75IXR2-DBPwpFutZNr-12" target="as75IXR2-DBPwpFutZNr-17">
          <mxGeometry relative="1" as="geometry" />
        </mxCell>
        <mxCell id="as75IXR2-DBPwpFutZNr-12" value="认真的倾听/仔细的询问" style="ellipse;whiteSpace=wrap;html=1;" vertex="1" parent="1">
          <mxGeometry x="2059.06" y="1860" width="80" height="80" as="geometry" />
        </mxCell>
        <mxCell id="as75IXR2-DBPwpFutZNr-13" style="edgeStyle=orthogonalEdgeStyle;rounded=0;orthogonalLoop=1;jettySize=auto;html=1;entryX=1;entryY=0.5;entryDx=0;entryDy=0;" edge="1" parent="1" source="as75IXR2-DBPwpFutZNr-14" target="as75IXR2-DBPwpFutZNr-12">
          <mxGeometry relative="1" as="geometry">
            <mxPoint x="1619.06" y="1740" as="targetPoint" />
          </mxGeometry>
        </mxCell>
        <mxCell id="as75IXR2-DBPwpFutZNr-14" value="我们应该如何获取这些信息呢" style="rhombus;whiteSpace=wrap;html=1;" vertex="1" parent="1">
          <mxGeometry x="1899.06" y="1790" width="80" height="80" as="geometry" />
        </mxCell>
        <mxCell id="as75IXR2-DBPwpFutZNr-15" value="我们获取的这些信息有什么用呢,也就是话中悬外音" style="rhombus;whiteSpace=wrap;html=1;" vertex="1" parent="1">
          <mxGeometry x="1670" y="850" width="160" height="115" as="geometry" />
        </mxCell>
        <mxCell id="as75IXR2-DBPwpFutZNr-16" value="" style="edgeStyle=orthogonalEdgeStyle;rounded=0;orthogonalLoop=1;jettySize=auto;html=1;" edge="1" parent="1" source="as75IXR2-DBPwpFutZNr-17" target="as75IXR2-DBPwpFutZNr-19">
          <mxGeometry relative="1" as="geometry" />
        </mxCell>
        <mxCell id="as75IXR2-DBPwpFutZNr-17" value="找到话里的信息和暴露量" style="rhombus;whiteSpace=wrap;html=1;" vertex="1" parent="1">
          <mxGeometry x="2049.06" y="1950" width="80" height="80" as="geometry" />
        </mxCell>
        <mxCell id="as75IXR2-DBPwpFutZNr-18" value="" style="edgeStyle=orthogonalEdgeStyle;rounded=0;orthogonalLoop=1;jettySize=auto;html=1;" edge="1" parent="1" source="as75IXR2-DBPwpFutZNr-19" target="as75IXR2-DBPwpFutZNr-21">
          <mxGeometry relative="1" as="geometry" />
        </mxCell>
        <mxCell id="as75IXR2-DBPwpFutZNr-19" value="我们要如何找呢" style="whiteSpace=wrap;html=1;" vertex="1" parent="1">
          <mxGeometry x="2039.06" y="2060" width="120" height="60" as="geometry" />
        </mxCell>
        <mxCell id="as75IXR2-DBPwpFutZNr-70" style="edgeStyle=orthogonalEdgeStyle;rounded=0;orthogonalLoop=1;jettySize=auto;html=1;entryX=1;entryY=0.5;entryDx=0;entryDy=0;" edge="1" parent="1" source="as75IXR2-DBPwpFutZNr-21" target="as75IXR2-DBPwpFutZNr-25">
          <mxGeometry relative="1" as="geometry" />
        </mxCell>
        <mxCell id="as75IXR2-DBPwpFutZNr-71" value="假设" style="edgeLabel;html=1;align=center;verticalAlign=middle;resizable=0;points=[];" vertex="1" connectable="0" parent="as75IXR2-DBPwpFutZNr-70">
          <mxGeometry x="0.0097" y="-1" relative="1" as="geometry">
            <mxPoint as="offset" />
          </mxGeometry>
        </mxCell>
        <mxCell id="as75IXR2-DBPwpFutZNr-21" value="钩子就是只有他才能说出来的东西，不是所有人都能说出来的" style="ellipse;whiteSpace=wrap;html=1;" vertex="1" parent="1">
          <mxGeometry x="1990.06" y="2200" width="180" height="120" as="geometry" />
        </mxCell>
        <mxCell id="as75IXR2-DBPwpFutZNr-23" value="&lt;h3 style=&quot;font-variant-numeric: normal; font-variant-east-asian: normal; font-variant-alternates: normal; font-size-adjust: none; font-kerning: auto; font-optical-sizing: auto; font-feature-settings: normal; font-variation-settings: normal; font-variant-position: normal; font-variant-emoji: normal; font-stretch: normal; font-size: 20px; line-height: 30px; font-family: quote-cjk-patch, Inter, system-ui, -apple-system, BlinkMacSystemFont, &amp;quot;Segoe UI&amp;quot;, Roboto, Oxygen, Ubuntu, Cantarell, &amp;quot;Open Sans&amp;quot;, &amp;quot;Helvetica Neue&amp;quot;, sans-serif; margin: 32px 0px 16px; color: rgb(15, 17, 21); text-align: start; background-color: rgb(255, 255, 255);&quot;&gt;&lt;span style=&quot;font-weight: inherit;&quot;&gt;钩子”的几种常见类型和例子&lt;/span&gt;&lt;/h3&gt;&lt;p style=&quot;margin: 16px 0px; color: rgb(15, 17, 21); font-family: quote-cjk-patch, Inter, system-ui, -apple-system, BlinkMacSystemFont, &amp;quot;Segoe UI&amp;quot;, Roboto, Oxygen, Ubuntu, Cantarell, &amp;quot;Open Sans&amp;quot;, &amp;quot;Helvetica Neue&amp;quot;, sans-serif; font-size: 16px; text-align: start; background-color: rgb(255, 255, 255);&quot; class=&quot;ds-markdown-paragraph&quot;&gt;让我们用刚才的模拟对话来彻底讲清楚：&lt;/p&gt;&lt;p style=&quot;margin: 16px 0px; color: rgb(15, 17, 21); font-family: quote-cjk-patch, Inter, system-ui, -apple-system, BlinkMacSystemFont, &amp;quot;Segoe UI&amp;quot;, Roboto, Oxygen, Ubuntu, Cantarell, &amp;quot;Open Sans&amp;quot;, &amp;quot;Helvetica Neue&amp;quot;, sans-serif; font-size: 16px; text-align: start; background-color: rgb(255, 255, 255);&quot; class=&quot;ds-markdown-paragraph&quot;&gt;&lt;span style=&quot;font-weight: 600;&quot;&gt;1. 情绪钩子（最容易识别）&lt;/span&gt;&lt;/p&gt;&lt;ul style=&quot;margin: 16px 0px; padding-left: 18px; color: rgb(15, 17, 21); font-family: quote-cjk-patch, Inter, system-ui, -apple-system, BlinkMacSystemFont, &amp;quot;Segoe UI&amp;quot;, Roboto, Oxygen, Ubuntu, Cantarell, &amp;quot;Open Sans&amp;quot;, &amp;quot;Helvetica Neue&amp;quot;, sans-serif; font-size: 16px; text-align: start; background-color: rgb(255, 255, 255);&quot;&gt;&lt;li&gt;&lt;p style=&quot;margin-top: 0px !important; margin-right: 0px; margin-bottom: 0px; margin-left: 0px;&quot; class=&quot;ds-markdown-paragraph&quot;&gt;&lt;span style=&quot;font-weight: 600;&quot;&gt;对方的话：&lt;/span&gt;&amp;nbsp;“这个项目总算做完了，&lt;span style=&quot;font-weight: 600;&quot;&gt;快累死了&lt;/span&gt;。”&lt;/p&gt;&lt;/li&gt;&lt;li style=&quot;margin-top: 6px;&quot;&gt;&lt;p style=&quot;margin-top: 0px !important; margin-right: 0px; margin-bottom: 0px; margin-left: 0px;&quot; class=&quot;ds-markdown-paragraph&quot;&gt;&lt;span style=&quot;font-weight: 600;&quot;&gt;钩子：&lt;/span&gt;&amp;nbsp;“&lt;span style=&quot;font-weight: 600;&quot;&gt;快累死了&lt;/span&gt;”（情绪：疲惫、解脱）&lt;/p&gt;&lt;/li&gt;&lt;li style=&quot;margin-top: 6px;&quot;&gt;&lt;p style=&quot;margin-top: 0px !important; margin-right: 0px; margin-bottom: 0px; margin-left: 0px;&quot; class=&quot;ds-markdown-paragraph&quot;&gt;&lt;span style=&quot;font-weight: 600;&quot;&gt;抓住钩子：&lt;/span&gt;&amp;nbsp;“听起来这是一场硬仗啊！现在最想干嘛，大睡一觉还是大吃一顿？”（接住疲惫，关心Ta的状态）&lt;/p&gt;&lt;/li&gt;&lt;/ul&gt;&lt;p style=&quot;margin: 16px 0px; color: rgb(15, 17, 21); font-family: quote-cjk-patch, Inter, system-ui, -apple-system, BlinkMacSystemFont, &amp;quot;Segoe UI&amp;quot;, Roboto, Oxygen, Ubuntu, Cantarell, &amp;quot;Open Sans&amp;quot;, &amp;quot;Helvetica Neue&amp;quot;, sans-serif; font-size: 16px; text-align: start; background-color: rgb(255, 255, 255);&quot; class=&quot;ds-markdown-paragraph&quot;&gt;&lt;span style=&quot;font-weight: 600;&quot;&gt;2. 个人经历/故事钩子（最有价值）&lt;/span&gt;&lt;/p&gt;&lt;ul style=&quot;margin: 16px 0px; padding-left: 18px; color: rgb(15, 17, 21); font-family: quote-cjk-patch, Inter, system-ui, -apple-system, BlinkMacSystemFont, &amp;quot;Segoe UI&amp;quot;, Roboto, Oxygen, Ubuntu, Cantarell, &amp;quot;Open Sans&amp;quot;, &amp;quot;Helvetica Neue&amp;quot;, sans-serif; font-size: 16px; text-align: start; background-color: rgb(255, 255, 255);&quot;&gt;&lt;li&gt;&lt;p style=&quot;margin-top: 0px !important; margin-right: 0px; margin-bottom: 8px; margin-left: 0px;&quot; class=&quot;ds-markdown-paragraph&quot;&gt;&lt;span style=&quot;font-weight: 600;&quot;&gt;刚才对话中的例子：&lt;/span&gt;&lt;/p&gt;&lt;ul style=&quot;margin: 4px 0px 0px; padding-left: 18px;&quot;&gt;&lt;li&gt;&lt;p style=&quot;margin-top: 0px !important; margin-right: 0px; margin-bottom: 0px; margin-left: 0px;&quot; class=&quot;ds-markdown-paragraph&quot;&gt;&lt;span style=&quot;font-weight: 600;&quot;&gt;对方的话：&lt;/span&gt;&amp;nbsp;“&lt;span style=&quot;font-weight: 600;&quot;&gt;我建议你&lt;/span&gt;傍晚上去（广州塔）。”&lt;/p&gt;&lt;/li&gt;&lt;li style=&quot;margin-top: 6px;&quot;&gt;&lt;p style=&quot;margin-top: 0px !important; margin-right: 0px; margin-bottom: 0px; margin-left: 0px;&quot; class=&quot;ds-markdown-paragraph&quot;&gt;&lt;span style=&quot;font-weight: 600;&quot;&gt;钩子：&lt;/span&gt;&amp;nbsp;“&lt;span style=&quot;font-weight: 600;&quot;&gt;我建议你&lt;/span&gt;” 或 “傍晚上去”（这背后隐藏着对方的个人经验）&lt;/p&gt;&lt;/li&gt;&lt;li style=&quot;margin-top: 6px;&quot;&gt;&lt;p style=&quot;margin-top: 0px !important; margin-right: 0px; margin-bottom: 0px; margin-left: 0px;&quot; class=&quot;ds-markdown-paragraph&quot;&gt;&lt;span style=&quot;font-weight: 600;&quot;&gt;抓住钩子：&lt;/span&gt;&amp;nbsp;“你这个建议好专业！&lt;span style=&quot;font-weight: 600;&quot;&gt;你是不是去过好几次了？&lt;/span&gt;”（追问个人经历）&lt;/p&gt;&lt;/li&gt;&lt;/ul&gt;&lt;/li&gt;&lt;/ul&gt;&lt;p style=&quot;margin: 16px 0px; color: rgb(15, 17, 21); font-family: quote-cjk-patch, Inter, system-ui, -apple-system, BlinkMacSystemFont, &amp;quot;Segoe UI&amp;quot;, Roboto, Oxygen, Ubuntu, Cantarell, &amp;quot;Open Sans&amp;quot;, &amp;quot;Helvetica Neue&amp;quot;, sans-serif; font-size: 16px; text-align: start; background-color: rgb(255, 255, 255);&quot; class=&quot;ds-markdown-paragraph&quot;&gt;&lt;span style=&quot;font-weight: 600;&quot;&gt;3. 细节描述钩子（让画面感更强）&lt;/span&gt;&lt;/p&gt;&lt;ul style=&quot;margin: 16px 0px; padding-left: 18px; color: rgb(15, 17, 21); font-family: quote-cjk-patch, Inter, system-ui, -apple-system, BlinkMacSystemFont, &amp;quot;Segoe UI&amp;quot;, Roboto, Oxygen, Ubuntu, Cantarell, &amp;quot;Open Sans&amp;quot;, &amp;quot;Helvetica Neue&amp;quot;, sans-serif; font-size: 16px; text-align: start; background-color: rgb(255, 255, 255);&quot;&gt;&lt;li&gt;&lt;p style=&quot;margin-top: 0px !important; margin-right: 0px; margin-bottom: 0px; margin-left: 0px;&quot; class=&quot;ds-markdown-paragraph&quot;&gt;&lt;span style=&quot;font-weight: 600;&quot;&gt;对方的话：&lt;/span&gt;&amp;nbsp;“我周末去爬山了，那山&lt;span style=&quot;font-weight: 600;&quot;&gt;陡得我腿都在抖&lt;/span&gt;。”&lt;/p&gt;&lt;/li&gt;&lt;li style=&quot;margin-top: 6px;&quot;&gt;&lt;p style=&quot;margin-top: 0px !important; margin-right: 0px; margin-bottom: 0px; margin-left: 0px;&quot; class=&quot;ds-markdown-paragraph&quot;&gt;&lt;span style=&quot;font-weight: 600;&quot;&gt;钩子：&lt;/span&gt;&amp;nbsp;“&lt;span style=&quot;font-weight: 600;&quot;&gt;陡得我腿都在抖&lt;/span&gt;”（生动的细节）&lt;/p&gt;&lt;/li&gt;&lt;li style=&quot;margin-top: 6px;&quot;&gt;&lt;p style=&quot;margin-top: 0px !important; margin-right: 0px; margin-bottom: 0px; margin-left: 0px;&quot; class=&quot;ds-markdown-paragraph&quot;&gt;&lt;span style=&quot;font-weight: 600;&quot;&gt;抓住钩子：&lt;/span&gt;&amp;nbsp;“哈哈，‘腿都在抖’这个形容太有画面感了！是哪座山这么有挑战性？”（抓住细节，追问具体信息）&lt;/p&gt;&lt;/li&gt;&lt;/ul&gt;&lt;p style=&quot;margin: 16px 0px; color: rgb(15, 17, 21); font-family: quote-cjk-patch, Inter, system-ui, -apple-system, BlinkMacSystemFont, &amp;quot;Segoe UI&amp;quot;, Roboto, Oxygen, Ubuntu, Cantarell, &amp;quot;Open Sans&amp;quot;, &amp;quot;Helvetica Neue&amp;quot;, sans-serif; font-size: 16px; text-align: start; background-color: rgb(255, 255, 255);&quot; class=&quot;ds-markdown-paragraph&quot;&gt;&lt;span style=&quot;font-weight: 600;&quot;&gt;4. 观点/评价钩子（引发深度讨论）&lt;/span&gt;&lt;/p&gt;&lt;ul style=&quot;margin: 16px 0px; padding-left: 18px; color: rgb(15, 17, 21); font-family: quote-cjk-patch, Inter, system-ui, -apple-system, BlinkMacSystemFont, &amp;quot;Segoe UI&amp;quot;, Roboto, Oxygen, Ubuntu, Cantarell, &amp;quot;Open Sans&amp;quot;, &amp;quot;Helvetica Neue&amp;quot;, sans-serif; font-size: 16px; text-align: start; background-color: rgb(255, 255, 255);&quot;&gt;&lt;li&gt;&lt;p style=&quot;margin-top: 0px !important; margin-right: 0px; margin-bottom: 0px; margin-left: 0px;&quot; class=&quot;ds-markdown-paragraph&quot;&gt;&lt;span style=&quot;font-weight: 600;&quot;&gt;对方的话：&lt;/span&gt;&amp;nbsp;“我觉得&lt;span style=&quot;font-weight: 600;&quot;&gt;现在的手机更新换代太快了，真没必要追新&lt;/span&gt;。”&lt;/p&gt;&lt;/li&gt;&lt;li style=&quot;margin-top: 6px;&quot;&gt;&lt;p style=&quot;margin-top: 0px !important; margin-right: 0px; margin-bottom: 0px; margin-left: 0px;&quot; class=&quot;ds-markdown-paragraph&quot;&gt;&lt;span style=&quot;font-weight: 600;&quot;&gt;钩子：&lt;/span&gt;&amp;nbsp;“&lt;span style=&quot;font-weight: 600;&quot;&gt;真没必要追新&lt;/span&gt;”（个人观点）&lt;/p&gt;&lt;/li&gt;&lt;li style=&quot;margin-top: 6px;&quot;&gt;&lt;p style=&quot;margin-top: 0px !important; margin-right: 0px; margin-bottom: 0px; margin-left: 0px;&quot; class=&quot;ds-markdown-paragraph&quot;&gt;&lt;span style=&quot;font-weight: 600;&quot;&gt;抓住钩子：&lt;/span&gt;&amp;nbsp;“我也有同感！那你觉得一款手机用到什么程度才算‘物尽其用’呢？”（接住观点，进行探讨）&lt;/p&gt;&lt;/li&gt;&lt;/ul&gt;" style="rounded=1;whiteSpace=wrap;html=1;" vertex="1" parent="1">
          <mxGeometry x="1480" y="2650" width="874" height="708" as="geometry" />
        </mxCell>
        <mxCell id="as75IXR2-DBPwpFutZNr-24" value="" style="edgeStyle=orthogonalEdgeStyle;rounded=0;orthogonalLoop=1;jettySize=auto;html=1;" edge="1" parent="1" source="as75IXR2-DBPwpFutZNr-25" target="as75IXR2-DBPwpFutZNr-27">
          <mxGeometry relative="1" as="geometry" />
        </mxCell>
        <mxCell id="as75IXR2-DBPwpFutZNr-25" value="&lt;p class=&quot;MsoNormal&quot;&gt;&lt;span style=&quot;mso-spacerun:&#39;yes&#39;;font-family:宋体;mso-ascii-font-family:Calibri;&lt;br/&gt;mso-hansi-font-family:Calibri;mso-bidi-font-family:&#39;Times New Roman&#39;;font-size:10.5000pt;&lt;br/&gt;mso-font-kerning:1.0000pt;&quot;&gt;朋友说：广州塔的日出，日落好看&lt;/span&gt;&lt;span style=&quot;mso-spacerun:&#39;yes&#39;;font-family:宋体;mso-ascii-font-family:Calibri;&lt;br/&gt;mso-hansi-font-family:Calibri;mso-bidi-font-family:&#39;Times New Roman&#39;;font-size:10.5000pt;&lt;br/&gt;mso-font-kerning:1.0000pt;&quot;&gt;&lt;/span&gt;&lt;/p&gt;&lt;p class=&quot;MsoNormal&quot;&gt;&lt;span style=&quot;mso-spacerun:&#39;yes&#39;;font-family:宋体;mso-ascii-font-family:Calibri;&lt;br/&gt;mso-hansi-font-family:Calibri;mso-bidi-font-family:&#39;Times New Roman&#39;;font-size:10.5000pt;&lt;br/&gt;mso-font-kerning:1.0000pt;&quot;&gt;我说：北京的日落更好看&lt;/span&gt;&lt;span style=&quot;mso-spacerun:&#39;yes&#39;;font-family:宋体;mso-ascii-font-family:Calibri;&lt;br/&gt;mso-hansi-font-family:Calibri;mso-bidi-font-family:&#39;Times New Roman&#39;;font-size:10.5000pt;&lt;br/&gt;mso-font-kerning:1.0000pt;&quot;&gt;&lt;/span&gt;&lt;/p&gt;&lt;p class=&quot;MsoNormal&quot;&gt;&lt;span style=&quot;mso-spacerun:&#39;yes&#39;;font-family:宋体;mso-ascii-font-family:Calibri;&lt;br/&gt;mso-hansi-font-family:Calibri;mso-bidi-font-family:&#39;Times New Roman&#39;;font-size:10.5000pt;&lt;br/&gt;mso-font-kerning:1.0000pt;&quot;&gt;我抓住了日落的钩子&lt;/span&gt;&lt;span style=&quot;mso-spacerun:&#39;yes&#39;;font-family:宋体;mso-ascii-font-family:Calibri;&lt;br/&gt;mso-hansi-font-family:Calibri;mso-bidi-font-family:&#39;Times New Roman&#39;;font-size:10.5000pt;&lt;br/&gt;mso-font-kerning:1.0000pt;&quot;&gt;&lt;/span&gt;&lt;/p&gt;&lt;p class=&quot;MsoNormal&quot;&gt;&lt;span style=&quot;mso-spacerun:&#39;yes&#39;;font-family:宋体;mso-ascii-font-family:Calibri;&lt;br/&gt;mso-hansi-font-family:Calibri;mso-bidi-font-family:&#39;Times New Roman&#39;;font-size:10.5000pt;&lt;br/&gt;mso-font-kerning:1.0000pt;&quot;&gt;这句话存在什么问题&lt;/span&gt;&lt;span style=&quot;mso-spacerun:&#39;yes&#39;;font-family:Calibri;mso-fareast-font-family:宋体;&lt;br/&gt;mso-bidi-font-family:&#39;Times New Roman&#39;;font-size:10.5000pt;mso-font-kerning:1.0000pt;&quot;&gt;&lt;/span&gt;&lt;/p&gt;" style="whiteSpace=wrap;html=1;" vertex="1" parent="1">
          <mxGeometry x="994.06" y="2440" width="235" height="160" as="geometry" />
        </mxCell>
        <mxCell id="as75IXR2-DBPwpFutZNr-26" value="" style="edgeStyle=orthogonalEdgeStyle;rounded=0;orthogonalLoop=1;jettySize=auto;html=1;" edge="1" parent="1" source="as75IXR2-DBPwpFutZNr-27" target="as75IXR2-DBPwpFutZNr-29">
          <mxGeometry relative="1" as="geometry" />
        </mxCell>
        <mxCell id="as75IXR2-DBPwpFutZNr-27" value="&lt;p style=&quot;margin: 16px 0px; color: rgb(15, 17, 21); font-family: quote-cjk-patch, Inter, system-ui, -apple-system, BlinkMacSystemFont, &amp;quot;Segoe UI&amp;quot;, Roboto, Oxygen, Ubuntu, Cantarell, &amp;quot;Open Sans&amp;quot;, &amp;quot;Helvetica Neue&amp;quot;, sans-serif; font-size: 16px; text-align: start; background-color: rgb(255, 255, 255);&quot; class=&quot;ds-markdown-paragraph&quot;&gt;你的错误在于把一场&lt;span style=&quot;font-weight: 600;&quot;&gt;朋友间的分享&lt;/span&gt;，变成了一场&lt;span style=&quot;font-weight: 600;&quot;&gt;无关紧要的竞赛&lt;/span&gt;。你抓住了“日落”这个词，但弄丢了“朋友想和你分享美好”这个最重要的钩子。&lt;/p&gt;&lt;p style=&quot;margin-top: 16px; margin-right: 0px; margin-left: 0px; color: rgb(15, 17, 21); font-family: quote-cjk-patch, Inter, system-ui, -apple-system, BlinkMacSystemFont, &amp;quot;Segoe UI&amp;quot;, Roboto, Oxygen, Ubuntu, Cantarell, &amp;quot;Open Sans&amp;quot;, &amp;quot;Helvetica Neue&amp;quot;, sans-serif; font-size: 16px; text-align: start; background-color: rgb(255, 255, 255); margin-bottom: 0px !important;&quot; class=&quot;ds-markdown-paragraph&quot;&gt;记住一个原则：在社交中，&lt;span style=&quot;font-weight: 600;&quot;&gt;当对方分享感受时，优先回应情绪，而不是事实；优先寻求联结，而不是竞争。&lt;/span&gt;&lt;/p&gt;" style="whiteSpace=wrap;html=1;" vertex="1" parent="1">
          <mxGeometry x="559.06" y="2250" width="330" height="190" as="geometry" />
        </mxCell>
        <mxCell id="as75IXR2-DBPwpFutZNr-28" value="" style="edgeStyle=orthogonalEdgeStyle;rounded=0;orthogonalLoop=1;jettySize=auto;html=1;" edge="1" parent="1" source="as75IXR2-DBPwpFutZNr-29" target="as75IXR2-DBPwpFutZNr-31">
          <mxGeometry relative="1" as="geometry" />
        </mxCell>
        <mxCell id="as75IXR2-DBPwpFutZNr-29" value="正确的方法" style="rhombus;whiteSpace=wrap;html=1;" vertex="1" parent="1">
          <mxGeometry x="994.06" y="2080" width="80" height="80" as="geometry" />
        </mxCell>
        <mxCell id="as75IXR2-DBPwpFutZNr-30" value="" style="edgeStyle=orthogonalEdgeStyle;rounded=0;orthogonalLoop=1;jettySize=auto;html=1;" edge="1" parent="1" source="as75IXR2-DBPwpFutZNr-31" target="as75IXR2-DBPwpFutZNr-33">
          <mxGeometry relative="1" as="geometry" />
        </mxCell>
        <mxCell id="as75IXR2-DBPwpFutZNr-31" value="认同他的观点，认同观点不是简单的认同，而是能顺着他的话说下去" style="whiteSpace=wrap;html=1;" vertex="1" parent="1">
          <mxGeometry x="1160.06" y="2030" width="185" height="120" as="geometry" />
        </mxCell>
        <mxCell id="as75IXR2-DBPwpFutZNr-32" value="" style="edgeStyle=orthogonalEdgeStyle;rounded=0;orthogonalLoop=1;jettySize=auto;html=1;entryX=0.5;entryY=1;entryDx=0;entryDy=0;" edge="1" parent="1" source="as75IXR2-DBPwpFutZNr-33" target="as75IXR2-DBPwpFutZNr-35">
          <mxGeometry relative="1" as="geometry">
            <mxPoint x="1294.76" y="1850" as="targetPoint" />
          </mxGeometry>
        </mxCell>
        <mxCell id="as75IXR2-DBPwpFutZNr-33" value="&lt;span style=&quot;color: rgb(15, 17, 21); font-family: quote-cjk-patch, Inter, system-ui, -apple-system, BlinkMacSystemFont, &amp;quot;Segoe UI&amp;quot;, Roboto, Oxygen, Ubuntu, Cantarell, &amp;quot;Open Sans&amp;quot;, &amp;quot;Helvetica Neue&amp;quot;, sans-serif; font-size: 16px; text-align: start; white-space-collapse: preserve;&quot;&gt;广州塔上的日出好美，这应该是最接近太阳的地方了，好像伸手就可以触摸到&lt;/span&gt;" style="whiteSpace=wrap;html=1;labelBackgroundColor=none;" vertex="1" parent="1">
          <mxGeometry x="1219.06" y="1890" width="212.5" height="80" as="geometry" />
        </mxCell>
        <mxCell id="as75IXR2-DBPwpFutZNr-34" value="" style="edgeStyle=orthogonalEdgeStyle;rounded=0;orthogonalLoop=1;jettySize=auto;html=1;" edge="1" parent="1" source="as75IXR2-DBPwpFutZNr-35" target="as75IXR2-DBPwpFutZNr-40">
          <mxGeometry relative="1" as="geometry" />
        </mxCell>
        <mxCell id="as75IXR2-DBPwpFutZNr-35" value="&lt;span style=&quot;font-weight: 600; color: rgb(15, 17, 21); font-family: quote-cjk-patch, Inter, system-ui, -apple-system, BlinkMacSystemFont, &amp;quot;Segoe UI&amp;quot;, Roboto, Oxygen, Ubuntu, Cantarell, &amp;quot;Open Sans&amp;quot;, &amp;quot;Helvetica Neue&amp;quot;, sans-serif; font-size: 16px; text-align: start; background-color: rgb(255, 255, 255);&quot;&gt;后者是高质量对话的标志。&lt;/span&gt;&lt;span style=&quot;color: rgb(15, 17, 21); font-family: quote-cjk-patch, Inter, system-ui, -apple-system, BlinkMacSystemFont, &amp;quot;Segoe UI&amp;quot;, Roboto, Oxygen, Ubuntu, Cantarell, &amp;quot;Open Sans&amp;quot;, &amp;quot;Helvetica Neue&amp;quot;, sans-serif; font-size: 16px; text-align: start; background-color: rgb(255, 255, 255);&quot;&gt;&amp;nbsp;你不仅证明了你已经理解了什么是“钩子”，更展示了如何通过共情和想象力，让一个简单的钩子演变成一次愉悦的、有来有回的深度交流。&lt;/span&gt;" style="rounded=0;whiteSpace=wrap;html=1;" vertex="1" parent="1">
          <mxGeometry x="1190.31" y="1700" width="270" height="120" as="geometry" />
        </mxCell>
        <mxCell id="as75IXR2-DBPwpFutZNr-36" value="" style="edgeStyle=orthogonalEdgeStyle;rounded=0;orthogonalLoop=1;jettySize=auto;html=1;" edge="1" parent="1" source="as75IXR2-DBPwpFutZNr-40" target="as75IXR2-DBPwpFutZNr-42">
          <mxGeometry relative="1" as="geometry" />
        </mxCell>
        <mxCell id="as75IXR2-DBPwpFutZNr-37" value="" style="edgeStyle=orthogonalEdgeStyle;rounded=0;orthogonalLoop=1;jettySize=auto;html=1;" edge="1" parent="1" source="as75IXR2-DBPwpFutZNr-40" target="as75IXR2-DBPwpFutZNr-43">
          <mxGeometry relative="1" as="geometry" />
        </mxCell>
        <mxCell id="as75IXR2-DBPwpFutZNr-38" value="" style="edgeStyle=orthogonalEdgeStyle;rounded=0;orthogonalLoop=1;jettySize=auto;html=1;entryX=0.5;entryY=1;entryDx=0;entryDy=0;" edge="1" parent="1" source="as75IXR2-DBPwpFutZNr-40" target="as75IXR2-DBPwpFutZNr-48">
          <mxGeometry relative="1" as="geometry">
            <mxPoint x="627.185" y="1544.9947961973405" as="targetPoint" />
          </mxGeometry>
        </mxCell>
        <mxCell id="as75IXR2-DBPwpFutZNr-39" value="问题" style="edgeLabel;html=1;align=center;verticalAlign=middle;resizable=0;points=[];" vertex="1" connectable="0" parent="as75IXR2-DBPwpFutZNr-38">
          <mxGeometry x="0.0915" relative="1" as="geometry">
            <mxPoint as="offset" />
          </mxGeometry>
        </mxCell>
        <mxCell id="as75IXR2-DBPwpFutZNr-40" value="高端的技巧就是，&lt;div&gt;朋友说美&lt;/div&gt;&lt;div&gt;你能说出那么美&lt;/div&gt;&lt;div&gt;朋友说好看，你能说出哪里好看&lt;/div&gt;&lt;div&gt;这就是情感共鸣和认同的基础&lt;/div&gt;" style="whiteSpace=wrap;html=1;rounded=0;" vertex="1" parent="1">
          <mxGeometry x="529.06" y="1650" width="196.25" height="170" as="geometry" />
        </mxCell>
        <mxCell id="as75IXR2-DBPwpFutZNr-41" style="edgeStyle=orthogonalEdgeStyle;rounded=0;orthogonalLoop=1;jettySize=auto;html=1;entryX=0;entryY=0.5;entryDx=0;entryDy=0;" edge="1" parent="1" source="as75IXR2-DBPwpFutZNr-42" target="as75IXR2-DBPwpFutZNr-33">
          <mxGeometry relative="1" as="geometry" />
        </mxCell>
        <mxCell id="as75IXR2-DBPwpFutZNr-42" value="在加上足够的想象和比喻" style="rhombus;whiteSpace=wrap;html=1;rounded=0;" vertex="1" parent="1">
          <mxGeometry x="689.06" y="1870" width="161.88" height="105" as="geometry" />
        </mxCell>
        <mxCell id="as75IXR2-DBPwpFutZNr-43" value="这就是传说中的情感共鸣，深入交流的必须品，必要的技巧" style="shape=singleArrow;whiteSpace=wrap;html=1;arrowWidth=0.4;arrowSize=0.4;rounded=0;" vertex="1" parent="1">
          <mxGeometry x="64.05999999999995" y="1595" width="361.88" height="145" as="geometry" />
        </mxCell>
        <mxCell id="as75IXR2-DBPwpFutZNr-44" style="edgeStyle=orthogonalEdgeStyle;rounded=0;orthogonalLoop=1;jettySize=auto;html=1;entryX=0;entryY=0.5;entryDx=0;entryDy=0;" edge="1" parent="1" source="as75IXR2-DBPwpFutZNr-45" target="as75IXR2-DBPwpFutZNr-40">
          <mxGeometry relative="1" as="geometry" />
        </mxCell>
        <mxCell id="as75IXR2-DBPwpFutZNr-45" value="你说漂亮他能说出来哪里漂亮，并且你们的观点相同" style="shape=singleArrow;whiteSpace=wrap;html=1;arrowWidth=0.4;arrowSize=0.4;rounded=0;" vertex="1" parent="1">
          <mxGeometry x="80.93999999999994" y="1810" width="345" height="145" as="geometry" />
        </mxCell>
        <mxCell id="as75IXR2-DBPwpFutZNr-46" value="" style="edgeStyle=orthogonalEdgeStyle;rounded=0;orthogonalLoop=1;jettySize=auto;html=1;" edge="1" parent="1" source="as75IXR2-DBPwpFutZNr-48" target="as75IXR2-DBPwpFutZNr-51">
          <mxGeometry relative="1" as="geometry" />
        </mxCell>
        <mxCell id="as75IXR2-DBPwpFutZNr-47" value="虽然两个人的观点不一样但是这也是一种共鸣，而且是一种高级共鸣" style="edgeLabel;html=1;align=center;verticalAlign=middle;resizable=0;points=[];" vertex="1" connectable="0" parent="as75IXR2-DBPwpFutZNr-46">
          <mxGeometry x="0.1984" y="2" relative="1" as="geometry">
            <mxPoint as="offset" />
          </mxGeometry>
        </mxCell>
        <mxCell id="as75IXR2-DBPwpFutZNr-48" value="就是是说美，说漂亮，但是每个人说漂亮的程度和角度不同，我们该怎么解决呢" style="whiteSpace=wrap;html=1;aspect=fixed;" vertex="1" parent="1">
          <mxGeometry x="739.06" y="1400" width="172" height="172" as="geometry" />
        </mxCell>
        <mxCell id="as75IXR2-DBPwpFutZNr-49" value="" style="edgeStyle=orthogonalEdgeStyle;rounded=0;orthogonalLoop=1;jettySize=auto;html=1;entryX=0;entryY=0.5;entryDx=0;entryDy=0;" edge="1" parent="1" source="as75IXR2-DBPwpFutZNr-51" target="as75IXR2-DBPwpFutZNr-55">
          <mxGeometry relative="1" as="geometry">
            <mxPoint x="809.06" y="1237" as="targetPoint" />
            <Array as="points">
              <mxPoint x="245.05999999999995" y="880" />
              <mxPoint x="249.05999999999995" y="880" />
              <mxPoint x="249.05999999999995" y="440" />
              <mxPoint x="159.05999999999995" y="440" />
            </Array>
          </mxGeometry>
        </mxCell>
        <mxCell id="as75IXR2-DBPwpFutZNr-50" value="既然观点不一样也是共鸣，那共鸣的特点是什么呢" style="edgeLabel;html=1;align=center;verticalAlign=middle;resizable=0;points=[];" vertex="1" connectable="0" parent="as75IXR2-DBPwpFutZNr-49">
          <mxGeometry x="-0.1177" relative="1" as="geometry">
            <mxPoint as="offset" />
          </mxGeometry>
        </mxCell>
        <mxCell id="as75IXR2-DBPwpFutZNr-51" value="&lt;p class=&quot;MsoNormal&quot;&gt;&lt;span style=&quot;mso-spacerun:&#39;yes&#39;;font-family:宋体;mso-ascii-font-family:Calibri;&lt;br/&gt;mso-hansi-font-family:Calibri;mso-bidi-font-family:&#39;Times New Roman&#39;;font-size:10.5000pt;&lt;br/&gt;mso-font-kerning:1.0000pt;&quot;&gt;朋友觉得：广州塔的日出，日落代表着时间流逝&lt;/span&gt;&lt;span style=&quot;mso-spacerun:&#39;yes&#39;;font-family:宋体;mso-ascii-font-family:Calibri;&lt;br/&gt;mso-hansi-font-family:Calibri;mso-bidi-font-family:&#39;Times New Roman&#39;;font-size:10.5000pt;&lt;br/&gt;mso-font-kerning:1.0000pt;&quot;&gt;&lt;/span&gt;&lt;/p&gt;&lt;p class=&quot;MsoNormal&quot;&gt;&lt;span style=&quot;mso-spacerun:&#39;yes&#39;;font-family:宋体;mso-ascii-font-family:Calibri;&lt;br/&gt;mso-hansi-font-family:Calibri;mso-bidi-font-family:&#39;Times New Roman&#39;;font-size:10.5000pt;&lt;br/&gt;mso-font-kerning:1.0000pt;&quot;&gt;我觉得：时间悄悄的流逝我们却一事无成&lt;/span&gt;&lt;span style=&quot;mso-spacerun:&#39;yes&#39;;font-family:宋体;mso-ascii-font-family:Calibri;&lt;br/&gt;mso-hansi-font-family:Calibri;mso-bidi-font-family:&#39;Times New Roman&#39;;font-size:10.5000pt;&lt;br/&gt;mso-font-kerning:1.0000pt;&quot;&gt;&lt;/span&gt;&lt;/p&gt;&lt;p class=&quot;MsoNormal&quot;&gt;&lt;span style=&quot;mso-spacerun:&#39;yes&#39;;font-family:宋体;mso-ascii-font-family:Calibri;&lt;br/&gt;mso-hansi-font-family:Calibri;mso-bidi-font-family:&#39;Times New Roman&#39;;font-size:10.5000pt;&lt;br/&gt;mso-font-kerning:1.0000pt;&quot;&gt;朋友觉得：时间的流逝代表着活着，只要活着就有希望，年纪轻轻的怎么能说一事无成呢&lt;/span&gt;&lt;/p&gt;" style="whiteSpace=wrap;html=1;" vertex="1" parent="1">
          <mxGeometry x="40" y="1170" width="410" height="134" as="geometry" />
        </mxCell>
        <mxCell id="as75IXR2-DBPwpFutZNr-52" value="" style="edgeStyle=orthogonalEdgeStyle;rounded=0;orthogonalLoop=1;jettySize=auto;html=1;" edge="1" parent="1" source="as75IXR2-DBPwpFutZNr-53" target="as75IXR2-DBPwpFutZNr-57">
          <mxGeometry relative="1" as="geometry">
            <Array as="points">
              <mxPoint x="569.06" y="890" />
              <mxPoint x="569.06" y="890" />
            </Array>
          </mxGeometry>
        </mxCell>
        <mxCell id="as75IXR2-DBPwpFutZNr-53" value="真正的共鸣是，大家在一条直线上，交叉前进，如果在某处停止不动了，就说明不是共鸣了" style="whiteSpace=wrap;html=1;" vertex="1" parent="1">
          <mxGeometry x="449.99999999999994" y="720" width="320" height="117" as="geometry" />
        </mxCell>
        <mxCell id="as75IXR2-DBPwpFutZNr-54" style="edgeStyle=orthogonalEdgeStyle;rounded=0;orthogonalLoop=1;jettySize=auto;html=1;" edge="1" parent="1" source="as75IXR2-DBPwpFutZNr-55" target="as75IXR2-DBPwpFutZNr-53">
          <mxGeometry relative="1" as="geometry">
            <Array as="points">
              <mxPoint x="554.06" y="570" />
              <mxPoint x="559.06" y="570" />
            </Array>
          </mxGeometry>
        </mxCell>
        <mxCell id="as75IXR2-DBPwpFutZNr-55" value="&lt;h3 style=&quot;font-variant-numeric: normal; font-variant-east-asian: normal; font-variant-alternates: normal; font-size-adjust: none; font-kerning: auto; font-optical-sizing: auto; font-feature-settings: normal; font-variation-settings: normal; font-variant-position: normal; font-variant-emoji: normal; font-stretch: normal; font-size: 20px; line-height: 30px; font-family: quote-cjk-patch, Inter, system-ui, -apple-system, BlinkMacSystemFont, &amp;quot;Segoe UI&amp;quot;, Roboto, Oxygen, Ubuntu, Cantarell, &amp;quot;Open Sans&amp;quot;, &amp;quot;Helvetica Neue&amp;quot;, sans-serif; margin: 32px 0px 16px; color: rgb(15, 17, 21); text-align: start; background-color: rgb(255, 255, 255);&quot;&gt;所以，情感共鸣的关键不是“想法一致”，而是“情感同频”&lt;/h3&gt;&lt;p style=&quot;margin: 16px 0px; color: rgb(15, 17, 21); font-family: quote-cjk-patch, Inter, system-ui, -apple-system, BlinkMacSystemFont, &amp;quot;Segoe UI&amp;quot;, Roboto, Oxygen, Ubuntu, Cantarell, &amp;quot;Open Sans&amp;quot;, &amp;quot;Helvetica Neue&amp;quot;, sans-serif; font-size: 16px; text-align: start; background-color: rgb(255, 255, 255);&quot; class=&quot;ds-markdown-paragraph&quot;&gt;它意味着：&lt;/p&gt;&lt;ul style=&quot;margin: 16px 0px; padding-left: 18px; color: rgb(15, 17, 21); font-family: quote-cjk-patch, Inter, system-ui, -apple-system, BlinkMacSystemFont, &amp;quot;Segoe UI&amp;quot;, Roboto, Oxygen, Ubuntu, Cantarell, &amp;quot;Open Sans&amp;quot;, &amp;quot;Helvetica Neue&amp;quot;, sans-serif; font-size: 16px; text-align: start; background-color: rgb(255, 255, 255);&quot;&gt;&lt;li&gt;&lt;p style=&quot;margin-top: 0px !important; margin-right: 0px; margin-bottom: 0px; margin-left: 0px;&quot; class=&quot;ds-markdown-paragraph&quot;&gt;&lt;span style=&quot;font-weight: 600;&quot;&gt;我理解了你的情绪从何而来&lt;/span&gt;（我理解了你的焦虑是基于自省，而非懒惰）。&lt;/p&gt;&lt;/li&gt;&lt;li style=&quot;margin-top: 6px;&quot;&gt;&lt;p style=&quot;margin-top: 0px !important; margin-right: 0px; margin-bottom: 0px; margin-left: 0px;&quot; class=&quot;ds-markdown-paragraph&quot;&gt;&lt;span style=&quot;font-weight: 600;&quot;&gt;我尊重你持有这种情绪的权利&lt;/span&gt;（我没有否定你说“你不该这么想”）。&lt;/p&gt;&lt;/li&gt;&lt;li style=&quot;margin-top: 6px;&quot;&gt;&lt;p style=&quot;margin-top: 0px !important; margin-right: 0px; margin-bottom: 0px; margin-left: 0px;&quot; class=&quot;ds-markdown-paragraph&quot;&gt;&lt;span style=&quot;font-weight: 600;&quot;&gt;我试图在你的情感框架内与你连接&lt;/span&gt;（朋友在您的“焦虑”框架内，给予了“希望”的引导，而非粗暴地打断）。&lt;/p&gt;&lt;/li&gt;&lt;/ul&gt;" style="rounded=1;whiteSpace=wrap;html=1;" vertex="1" parent="1">
          <mxGeometry x="239.05999999999995" y="40" width="630" height="380" as="geometry" />
        </mxCell>
        <mxCell id="as75IXR2-DBPwpFutZNr-56" value="" style="edgeStyle=orthogonalEdgeStyle;rounded=0;orthogonalLoop=1;jettySize=auto;html=1;" edge="1" parent="1" source="as75IXR2-DBPwpFutZNr-57" target="as75IXR2-DBPwpFutZNr-58">
          <mxGeometry relative="1" as="geometry" />
        </mxCell>
        <mxCell id="as75IXR2-DBPwpFutZNr-57" value="如果发生这种情况应该怎么办。我们应该如何转移话题" style="whiteSpace=wrap;html=1;" vertex="1" parent="1">
          <mxGeometry x="519.06" y="940" width="120" height="60" as="geometry" />
        </mxCell>
        <mxCell id="as75IXR2-DBPwpFutZNr-58" value="这需要训练，使用连接词平稳的过渡" style="whiteSpace=wrap;html=1;" vertex="1" parent="1">
          <mxGeometry x="519.06" y="1080" width="120" height="60" as="geometry" />
        </mxCell>
        <mxCell id="as75IXR2-DBPwpFutZNr-59" value="Actor" style="shape=umlActor;verticalLabelPosition=bottom;verticalAlign=top;html=1;" vertex="1" parent="1">
          <mxGeometry x="1890" y="1416" width="190" height="140" as="geometry" />
        </mxCell>
        <mxCell id="as75IXR2-DBPwpFutZNr-68" value="" style="edgeStyle=orthogonalEdgeStyle;rounded=0;orthogonalLoop=1;jettySize=auto;html=1;" edge="1" parent="1" source="as75IXR2-DBPwpFutZNr-62" target="as75IXR2-DBPwpFutZNr-67">
          <mxGeometry relative="1" as="geometry" />
        </mxCell>
        <mxCell id="as75IXR2-DBPwpFutZNr-62" value="Actor" style="shape=umlActor;verticalLabelPosition=bottom;verticalAlign=top;html=1;" vertex="1" parent="1">
          <mxGeometry x="1250" y="1240" width="230" height="220" as="geometry" />
        </mxCell>
        <mxCell id="as75IXR2-DBPwpFutZNr-67" value="输出信息" style="whiteSpace=wrap;html=1;verticalAlign=top;align=center;" vertex="1" parent="1">
          <mxGeometry x="1660" y="1350" width="75" height="30" as="geometry" />
        </mxCell>
        <mxCell id="as75IXR2-DBPwpFutZNr-69" style="edgeStyle=orthogonalEdgeStyle;rounded=0;orthogonalLoop=1;jettySize=auto;html=1;entryX=0.684;entryY=0.005;entryDx=0;entryDy=0;entryPerimeter=0;" edge="1" parent="1" source="as75IXR2-DBPwpFutZNr-21" target="as75IXR2-DBPwpFutZNr-23">
          <mxGeometry relative="1" as="geometry" />
        </mxCell>
      </root>
    </mxGraphModel>
  </diagram>
</mxfile>
